<svg width="32" height="32" viewBox="0 0 32 32" xmlns="http://www.w3.org/2000/svg">
  <defs>
    <filter id="shadow" x="-20%" y="-20%" width="140%" height="140%">
      <feDropShadow dx="1" dy="1" stdDeviation="1" flood-color="#000000" flood-opacity="0.2"/>
    </filter>
  </defs>
  
  <!-- Background -->
  <circle cx="16" cy="16" r="14" fill="#ffffff" stroke="#3b82f6" stroke-width="2"/>
  
  <!-- Ultra-simple AK-47 -->
  <g transform="translate(3, 14)" filter="url(#shadow)">
    
    <!-- Stock -->
    <rect x="0" y="1" width="5" height="2" rx="1" fill="#000000"/>
    
    <!-- Main body -->
    <rect x="4" y="1.5" width="12" height="1" fill="#000000"/>
    
    <!-- Pistol grip -->
    <path d="M2 3 Q1.5 4 2 6 Q2.5 6.5 3.5 6 L4 4 Q4.5 3 3.5 3 Z" fill="#000000"/>
    
    <!-- Magazine -->
    <rect x="6" y="2.5" width="1.5" height="4" rx="0.5" fill="#000000"/>
    
    <!-- Barrel -->
    <rect x="16" y="2" width="10" height="0.5" fill="#000000"/>
    
    <!-- Muzzle -->
    <rect x="26" y="1.8" width="1.5" height="0.9" fill="#000000"/>
    
  </g>
  
  <!-- Minimal trading indicator -->
  <g transform="translate(20, 6)">
    <polyline points="0,6 2,4 4,2" fill="none" stroke="#00ff88" stroke-width="1"/>
    <polyline points="0,2 2,4 4,6" fill="none" stroke="#ff4757" stroke-width="1"/>
  </g>
  
</svg> 