<svg width="40" height="40" viewBox="0 0 40 40" xmlns="http://www.w3.org/2000/svg">
  <defs>
    <!-- Professional shadow -->
    <filter id="weaponShadow" x="-20%" y="-20%" width="140%" height="140%">
      <feDropShadow dx="1" dy="1" stdDeviation="1" flood-color="#000000" flood-opacity="0.3"/>
    </filter>
  </defs>
  
  <!-- Background -->
  <circle cx="20" cy="20" r="18" fill="#ffffff" stroke="#3b82f6" stroke-width="2"/>
  
  <!-- Compact AK-47 Silhouette -->
  <g transform="translate(5, 18)" filter="url(#weaponShadow)">
    
    <!-- Stock -->
    <rect x="0" y="2" width="6" height="3" rx="1" fill="#000000"/>
    
    <!-- Main receiver -->
    <rect x="5" y="2.5" width="15" height="2" fill="#000000"/>
    
    <!-- Pistol grip -->
    <path d="M3 4.5 Q2 6 3 8 Q4 8.5 5 8 L5.5 6 Q6 4.5 5 4.5 Z" fill="#000000"/>
    
    <!-- Magazine -->
    <path d="M8 4.5 Q7.5 5 8 9 Q8.5 9.5 10 9 L10 4.5 Z" fill="#000000"/>
    
    <!-- Barrel -->
    <rect x="20" y="3" width="12" height="1" fill="#000000"/>
    
    <!-- Front sight -->
    <rect x="28" y="1.5" width="1" height="3" fill="#000000"/>
    <polygon points="28.2,1.3 28.8,1.3 28.5,0.8" fill="#000000"/>
    
    <!-- Muzzle -->
    <rect x="32" y="2.8" width="2" height="1.4" fill="#000000"/>
    
  </g>
  
  <!-- Trading indicators -->
  <!-- Bullish arrow -->
  <g transform="translate(26, 8)">
    <polyline points="0,8 2,6 4,4 6,2" fill="none" stroke="#00ff88" stroke-width="1.5"/>
    <path d="M5 3 L7 1 L6.5 2 L7 2 L6.5 3 Z" fill="#00ff88"/>
  </g>
  
  <!-- Bearish arrow -->
  <g transform="translate(26, 26)">
    <polyline points="0,2 2,4 4,6 6,8" fill="none" stroke="#ff4757" stroke-width="1.5"/>
    <path d="M5 7 L7 9 L6.5 8 L7 8 L6.5 7 Z" fill="#ff4757"/>
  </g>
  
</svg> 